<svg xmlns="http://www.w3.org/2000/svg" width="1280" height="620" viewBox="0 0 1280 620" role="img" aria-labelledby="title desc">
  <title id="title">healthstatus sensors dashboard screenshot</title>
  <desc id="desc">A dark terminal dashboard showing anonymized GPU telemetry, CPU sensors, and GPU process panels.</desc>
  <defs>
    <style>
      .bg { fill: #07090d; }
      .panel { fill: #0d1117; stroke: #56606d; stroke-width: 1.4; }
      .green-stroke { stroke: #22c55e; }
      .yellow-stroke { stroke: #eab308; }
      .cyan-stroke { stroke: #22d3ee; }
      .text { fill: #d6dde8; font: 16px ui-monospace, SFMono-Regular, Menlo, Consolas, monospace; }
      .dim { fill: #7d8590; font: 16px ui-monospace, SFMono-Regular, Menlo, Consolas, monospace; }
      .title { fill: #f3f4f6; font: 700 16px ui-monospace, SFMono-Regular, Menlo, Consolas, monospace; }
      .cyan { fill: #22d3ee; }
      .green { fill: #22c55e; }
      .yellow { fill: #eab308; }
      .bar-bg { fill: #1f2937; }
      .bar-green { fill: #22c55e; }
      .bar-yellow { fill: #eab308; }
    </style>
  </defs>
  <rect class="bg" width="1280" height="620" rx="14"/>

  <rect class="panel" x="24" y="24" width="1232" height="56" rx="8"/>
  <text class="title cyan" x="48" y="58">healthstatus</text>
  <text class="text" x="176" y="58">user@workstation</text>
  <text class="dim" x="420" y="58">Linux</text>
  <text class="dim" x="640" y="58">x86_64</text>
  <text class="dim" x="760" y="58">uptime 5h 58m</text>
  <text class="title" x="1052" y="58">Sensors (3/3)</text>

  <rect class="panel green-stroke" x="24" y="104" width="760" height="330" rx="8"/>
  <text class="title green" x="48" y="137">GPU</text>
  <g class="text" transform="translate(48 178)">
    <text class="dim" y="0">Name</text><text x="150" y="0">GPU 0</text>
    <text class="dim" y="36">Temp</text><rect class="bar-bg" x="150" y="20" width="240" height="18" rx="4"/><rect class="bar-green" x="150" y="20" width="122" height="18" rx="4"/><text x="420" y="36">51 C</text>
    <text class="dim" y="72">GPU util</text><rect class="bar-bg" x="150" y="56" width="240" height="18" rx="4"/><rect class="bar-green" x="150" y="56" width="38" height="18" rx="4"/><text x="420" y="72">16%</text>
    <text class="dim" y="108">Mem I/O</text><rect class="bar-bg" x="150" y="92" width="240" height="18" rx="4"/><rect class="bar-green" x="150" y="92" width="24" height="18" rx="4"/><text x="420" y="108">10%</text>
    <text class="dim" y="144">VRAM</text><rect class="bar-bg" x="150" y="128" width="240" height="18" rx="4"/><rect class="bar-yellow" x="150" y="128" width="63" height="18" rx="4"/><text x="420" y="144">2.1 / 8.0 GiB</text>
    <text class="dim" y="180">Fan</text><rect class="bar-bg" x="150" y="164" width="240" height="18" rx="4"/><rect class="bar-yellow" x="150" y="164" width="146" height="18" rx="4"/><text x="420" y="180">61%</text>
    <text class="dim" y="216">Power</text><text x="150" y="216">26.8 W</text>
    <text class="dim" y="252">Clocks</text><text x="150" y="252">Core 495 MHz   Mem 405 MHz</text>
  </g>

  <rect class="panel yellow-stroke" x="804" y="104" width="452" height="330" rx="8"/>
  <text class="title yellow" x="828" y="137">CPU / board sensors</text>
  <text class="dim" x="828" y="178">no sensors available</text>
  <text class="dim" x="828" y="216">WSL often cannot expose CPU or</text>
  <text class="dim" x="828" y="244">motherboard thermal telemetry.</text>

  <rect class="panel cyan-stroke" x="24" y="456" width="1232" height="92" rx="8"/>
  <text class="title cyan" x="48" y="489">GPU processes</text>
  <text class="dim" x="48" y="522">pid</text><text class="dim" x="150" y="522">process</text><text class="dim" x="520" y="522">vram</text>
  <text class="dim" x="48" y="548">no compute processes visible</text>

  <rect class="panel" x="24" y="568" width="1232" height="36" rx="8"/>
  <text class="text" x="48" y="592">[1] Status   [2] Details   [3] Sensors   [tab] next   [q] quit</text>
</svg>
